<svg xmlns="http://www.w3.org/2000/svg" version="1.1" xmlns:xlink="http://www.w3.org/1999/xlink" xmlns:svgjs="http://svgjs.dev/svgjs" width="1500" height="1500" viewBox="0 0 1500 1500"><g transform="matrix(1,0,0,1,0.6072874493926292,0.6081503607998684)"><svg viewBox="0 0 247 247" data-background-color="#a988f9" preserveAspectRatio="xMidYMid meet" height="1500" width="1500" xmlns="http://www.w3.org/2000/svg" xmlns:xlink="http://www.w3.org/1999/xlink"><g id="tight-bounds" transform="matrix(1,0,0,1,-0.09999999999999432,-0.10002994974186663)"><svg viewBox="0 0 247.2 247.2" height="247.2" width="247.2"><g><svg viewBox="0 0 247.2 247.2" height="247.2" width="247.2"><g><svg viewBox="0 0 247.2 247.2" height="247.2" width="247.2"><g><svg viewBox="0 0 247.2 247.2" height="247.2" width="247.2"><g id="textblocktransform"><svg viewBox="0 0 247.2 247.2" height="247.2" width="247.2" id="textblock"><g><svg viewBox="0 0 247.2 247.2" height="247.2" width="247.2"><g transform="matrix(1,0,0,1,88.22971648347763,46.10675363620388)"><svg viewBox="0 0 70.74056703304471 154.98649272759224" height="154.98649272759224" width="70.74056703304471"><g id="icon-0"><svg xmlns="http://www.w3.org/2000/svg" xmlns:xlink="http://www.w3.org/1999/xlink" version="1.1" x="0" y="0" viewBox="20.449474824019916 1.5900000000000123 44.15052517598008 96.72999999999999" enable-background="new 0 0 100 100" xml:space="preserve" height="154.98649272759224" width="70.74056703304471" class="icon-xg-0" data-fill-palette-color="accent" id="xg-0"><path d="M53.88 48.65c0-0.11-0.02-0.22-0.04-0.33-0.01-0.09-0.03-0.18-0.05-0.26-0.04-0.19-0.09-0.37-0.17-0.55-0.03-0.08-0.06-0.16-0.1-0.24-0.06-0.16-0.14-0.32-0.24-0.46-0.04-0.06-0.07-0.12-0.11-0.17-0.03-0.06-0.07-0.12-0.12-0.17-0.05-0.06-0.09-0.12-0.14-0.17-0.04-0.06-0.09-0.12-0.15-0.17-0.71-0.74-1.69-1.19-2.77-1.19-1.07 0-2.05 0.45-2.76 1.19-0.07 0.07-0.14 0.14-0.19 0.22-0.07 0.07-0.13 0.15-0.18 0.23-0.12 0.15-0.22 0.32-0.31 0.5-0.05 0.11-0.11 0.22-0.15 0.33-0.11 0.26-0.19 0.52-0.24 0.8-0.06 0.26-0.08 0.52-0.08 0.79 0 0.7 0.17 1.36 0.48 1.93 0.19 0.36 0.44 0.7 0.72 0.98 0.07 0.07 0.15 0.15 0.23 0.21 0.18 0.16 0.38 0.3 0.58 0.41 0.11 0.07 0.21 0.12 0.32 0.17 0.11 0.06 0.21 0.1 0.33 0.14 0.11 0.04 0.23 0.08 0.36 0.11 0.12 0.03 0.24 0.05 0.37 0.07 0.07 0.01 0.14 0.02 0.21 0.02 0.1 0.02 0.21 0.02 0.31 0.02 0.1 0 0.21 0 0.31-0.02 0.07 0 0.14-0.01 0.21-0.02 0.15-0.02 0.29-0.05 0.44-0.09 0.12-0.03 0.24-0.07 0.35-0.11 0.12-0.04 0.23-0.09 0.34-0.15 0.09-0.04 0.18-0.09 0.26-0.14 0.06-0.03 0.13-0.07 0.19-0.12 0.07-0.04 0.13-0.09 0.19-0.13 0.16-0.11 0.31-0.25 0.46-0.41 0.04-0.04 0.08-0.09 0.12-0.13 0.19-0.2 0.35-0.43 0.49-0.68 0.04-0.06 0.07-0.13 0.11-0.2 0.06-0.11 0.11-0.23 0.15-0.35 0.04-0.1 0.08-0.2 0.11-0.3 0.12-0.39 0.18-0.8 0.18-1.22C53.9 48.87 53.9 48.76 53.88 48.65zM52.73 49.32c-0.01 0.15-0.04 0.3-0.08 0.43-0.01 0.03-0.02 0.07-0.03 0.1-0.01 0.03-0.02 0.06-0.03 0.09-0.05 0.15-0.11 0.29-0.17 0.42-0.08 0.14-0.16 0.28-0.26 0.4-0.07 0.09-0.14 0.18-0.22 0.26-0.12 0.13-0.26 0.25-0.41 0.35-0.07 0.06-0.14 0.11-0.22 0.14-0.08 0.05-0.16 0.09-0.24 0.13-0.33 0.15-0.69 0.23-1.08 0.23-0.38 0-0.74-0.08-1.07-0.23-0.01-0.01-0.01 0-0.01 0-0.16-0.07-0.32-0.16-0.46-0.27-0.17-0.11-0.32-0.25-0.45-0.4-0.07-0.06-0.13-0.13-0.18-0.21-0.1-0.12-0.18-0.26-0.26-0.4-0.06-0.13-0.12-0.27-0.17-0.42-0.01-0.03-0.02-0.06-0.03-0.09-0.01-0.03-0.02-0.07-0.03-0.1-0.04-0.13-0.07-0.28-0.08-0.43-0.01-0.11-0.02-0.22-0.02-0.33 0-0.1 0-0.2 0.01-0.29 0.02-0.19 0.06-0.38 0.11-0.56 0.04-0.14 0.09-0.27 0.16-0.4 0.03-0.08 0.07-0.16 0.12-0.23 0.11-0.19 0.25-0.37 0.41-0.54 0.5-0.52 1.18-0.84 1.95-0.84s1.45 0.32 1.95 0.84c0.16 0.17 0.3 0.35 0.41 0.54 0.05 0.07 0.09 0.15 0.12 0.23 0.07 0.13 0.12 0.26 0.16 0.4 0.05 0.18 0.09 0.37 0.11 0.56 0.01 0.09 0.01 0.19 0.01 0.29C52.75 49.1 52.74 49.21 52.73 49.32z" fill="#84e9a9" data-fill-palette-color="accent"></path><path d="M49.991 44.933c-2.153 0-3.905 1.816-3.905 4.06 0 2.237 1.752 4.062 3.905 4.062 2.159 0 3.913-1.824 3.913-4.062C53.904 46.749 52.15 44.933 49.991 44.933zM49.991 51.861c-1.526 0-2.758-1.286-2.758-2.869s1.231-2.871 2.758-2.871c1.526 0 2.759 1.288 2.759 2.871S51.518 51.861 49.991 51.861z" fill="#84e9a9" data-fill-palette-color="accent"></path><path fill="#84e9a9" d="M49.991 44.933c-2.153 0-3.905 1.816-3.905 4.06 0 2.237 1.752 4.062 3.905 4.062 2.159 0 3.913-1.824 3.913-4.062C53.904 46.749 52.15 44.933 49.991 44.933zM49.991 51.861c-1.526 0-2.758-1.286-2.758-2.869s1.231-2.871 2.758-2.871c1.526 0 2.759 1.288 2.759 2.871S51.518 51.861 49.991 51.861z" data-fill-palette-color="accent"></path><path d="M49.991 44.933c-2.153 0-3.905 1.816-3.905 4.06 0 2.237 1.752 4.062 3.905 4.062 2.159 0 3.913-1.824 3.913-4.062C53.904 46.749 52.15 44.933 49.991 44.933zM49.991 51.861c-1.526 0-2.758-1.286-2.758-2.869s1.231-2.871 2.758-2.871c1.526 0 2.759 1.288 2.759 2.871S51.518 51.861 49.991 51.861z" fill="#84e9a9" data-fill-palette-color="accent"></path><path d="M63.68 66.73c-0.05-3.43-0.11-8.47-0.18-12.82 0.66-0.42 1.1-1.16 1.1-2.01 0-0.87-0.46-1.63-1.15-2.05-0.01-0.67-0.02-1.29-0.03-1.85 0-6.65-1.88-10.36-3.33-12.25 0.06-0.2 0.11-0.42 0.11-0.64 0-1.24-1-2.23-2.24-2.23-0.56 0-1.07 0.19-1.46 0.52-0.75-0.48-1.5-0.83-2.25-1.11 0.03-0.15 0.05-0.31 0.05-0.47 0-1.51-1.39-2.77-3.26-3.11v-1.69c0 0 0.01 0 0.01-0.01 2.47-1.98 8.41-7.4 8.41-13.8 0-8.06-4.01-11.62-9.47-11.62-5.47 0-9.46 3.56-9.46 11.62 0 6.39 5.94 11.82 8.41 13.8 0 0.01 0 0.01 0 0.01v1.69c-1.87 0.34-3.26 1.6-3.26 3.11 0 0.16 0.02 0.32 0.05 0.48-0.72 0.28-1.44 0.62-2.16 1.07-0.38-0.31-0.87-0.49-1.41-0.49-1.01 0-1.86 0.66-2.14 1.57-1.74 0.71-4.62 2.5-8.81 7.05l-0.03 0.03 0.02-0.03c-0.29-0.14-0.62-0.21-0.97-0.21-0.27 0-0.53 0.05-0.77 0.13 0.02 0.04 0.04 0.08 0.06 0.12-0.03-0.04-0.05-0.08-0.07-0.12h0.01c-0.67-1.2-1.67-4.16-2.24-11.39 0.61-0.62 1.01-1.22 1.37-1.74 0.31-0.46 0.58-0.85 0.94-1.21 0.94-0.92 0.91-1.76 0.73-2.3-0.24-0.7-0.89-1.19-1.64-1.53 1.37-3.25 2.29-5.52 2.3-5.56 0.29-0.72-0.06-1.54-0.78-1.83-0.72-0.29-1.55 0.06-1.83 0.78-0.02 0.04-0.99 2.46-2.45 5.87-0.03 0.08-0.07 0.16-0.1 0.25l-0.01-0.01c0.03-0.09 0.07-0.16 0.1-0.24-0.04 0-0.09-0.01-0.14-0.01-0.02-0.01-0.04-0.01-0.06-0.01-1.48-3.46-2.47-5.92-2.48-5.95-0.29-0.72-1.11-1.07-1.83-0.78-0.72 0.28-1.08 1.1-0.79 1.82 0.02 0.04 1.52 3.79 3.6 8.53 0.59 12.47 2.35 16.5 3.71 17.93 0.16 1.17 1.17 2.07 2.38 2.07 1.21 0 2.21-0.9 2.37-2.07 0.2-0.17 0.41-0.36 0.62-0.58 4.1-4.45 6.66-5.92 7.84-6.41 0.32 0.19 0.7 0.29 1.09 0.29 0.34 0 0.66-0.07 0.94-0.21l2.14 8.91c-0.01 0-0.01 0.01-0.01 0.01-0.5 0.86-0.79 1.87-0.79 2.95 0 1.58 0.62 3.02 1.62 4.06-0.12 0.38-0.18 0.78-0.18 1.19 0 0.77 0.21 1.49 0.59 2.11-0.93 0.72-4.08 3.71-4.65 11.23v0.01c-0.74 0.36-1.26 1.13-1.26 2.01 0 0.83 0.46 1.57 1.14 1.95-0.16 8.86-0.34 19.34-0.39 22.13-0.21 0.29-0.33 0.64-0.33 1.02 0 0.2 0.03 0.39 0.1 0.57-2.38 0.34-4.2 1.55-4.44 3.04h11.52c-0.22-1.37-1.77-2.5-3.87-2.93 0.1-0.21 0.15-0.44 0.15-0.68 0-0.38-0.11-0.71-0.32-1 0.06-2.87 0.24-13.7 0.4-22.68 0.32-0.38 0.51-0.88 0.51-1.42 0-0.5-0.16-0.95-0.43-1.32v-0.01c0.44-7.4 3.54-9.67 3.63-9.74 0.17-0.11 0.31-0.24 0.42-0.4 0.41 0.15 0.87 0.22 1.34 0.22 0.49 0 0.96-0.08 1.39-0.24 0.11 0.17 0.25 0.32 0.43 0.44 0.04 0.02 3.16 2.21 3.62 9.66v0.01c-0.3 0.38-0.48 0.86-0.48 1.38 0 0.56 0.2 1.08 0.56 1.48 0.16 8.95 0.34 19.79 0.39 22.64v0.01c-0.2 0.27-0.3 0.61-0.3 0.97 0 0.25 0.05 0.48 0.15 0.7-2.06 0.44-3.57 1.57-3.79 2.91h11.53c-0.25-1.51-2.1-2.74-4.52-3.05 0.06-0.17 0.09-0.37 0.09-0.56 0-0.39-0.12-0.74-0.34-1.03v-0.01c-0.05-2.82-0.23-13.31-0.39-22.14 0.65-0.39 1.09-1.11 1.09-1.92 0-0.87-0.49-1.62-1.21-1.99C57.64 59.97 54.4 57 53.53 56.33c0.37-0.61 0.57-1.32 0.57-2.08 0-0.41-0.06-0.8-0.18-1.18v-0.01c1-1.04 1.62-2.48 1.62-4.06 0-1.08-0.29-2.09-0.79-2.96l2.15-8.96c0.26 0.14 0.55 0.23 0.85 0.25 1.09 1.34 2.86 4.49 2.86 10.69 0.01 0.61 0.02 1.3 0.03 2.05-0.51 0.44-0.84 1.1-0.84 1.83 0 0.76 0.35 1.44 0.9 1.87 0.05 4.35 0.11 9.43 0.17 12.89-0.05 0.2-0.05 0.42 0.02 0.62 0 0-0.01 0.01 0 0.02 0.02 1.78 0.03 3.47 0.07 4.99-0.32 0.95-0.82 2.01-1.62 3.18-0.43 0.65-0.27 1.52 0.39 1.96 0.24 0.16 0.52 0.24 0.77 0.24 0.19 0 0.36-0.04 0.53-0.1 0.01 0.94 0.02 2.49 0.02 2.53 0 0.76 0.64 1.38 1.41 1.38h0.02c0.77-0.01 1.39-0.64 1.38-1.42 0-0.06-0.03-3.64-0.08-7.38C64.6 69.74 64.03 67.63 63.68 66.73zM26.99 26.81c0.09-0.1 0.17-0.22 0.22-0.35 0.19-0.43 0.38-0.86 0.56-1.28 0.17 0.08 0.31 0.16 0.41 0.24-0.03 0.04-0.08 0.09-0.14 0.16-0.43 0.42-0.75 0.86-1.05 1.29V26.81zM54.8 10.68c2.14 0 3.87 2.01 3.87 2.01s-1.73 2.01-3.87 2.01-3.88-2.01-3.88-2.01S52.66 10.68 54.8 10.68zM45.19 14.7c-2.15 0-3.88-2.01-3.88-2.01s1.73-2.01 3.88-2.01c2.14 0 3.89 2.01 3.89 2.01S47.33 14.7 45.19 14.7zM48.1 29.6c-0.18 0.28-0.32 0.6-0.37 0.96-0.01 0.07-0.02 0.15-0.03 0.24-0.24 0.3-0.38 0.65-0.38 1.02 0 0.01 0 0.01 0 0.01 0.01 1.09 1.21 1.97 2.67 1.97 1.47 0 2.65-0.87 2.67-1.97v-0.01c0-0.43-0.19-0.82-0.5-1.15-0.01-0.04-0.01-0.08-0.01-0.11-0.05-0.39-0.21-0.73-0.42-1.03 1.07 0.45 1.79 1.31 1.79 2.29 0 0.08 0 0.15-0.01 0.23-0.16 1.34-1.68 2.39-3.52 2.39-1.84 0-3.36-1.04-3.51-2.39-0.02-0.08-0.02-0.15-0.02-0.23C46.46 30.88 47.12 30.07 48.1 29.6zM53.47 52.06c-0.07 0.09-0.14 0.17-0.22 0.24-0.83 0.89-1.98 1.44-3.26 1.44-1.29 0-2.45-0.57-3.27-1.45-0.07-0.07-0.14-0.15-0.2-0.23-0.68-0.82-1.09-1.89-1.09-3.06 0-0.47 0.06-0.91 0.18-1.33 0.56-1.97 2.3-3.42 4.38-3.42 2.07 0 3.82 1.44 4.38 3.4 0.12 0.42 0.19 0.88 0.19 1.35C54.56 50.17 54.14 51.24 53.47 52.06z" fill="#84e9a9" data-fill-palette-color="accent"></path></svg></g></svg></g><g id="text-0"><path d="M13.067 84.377l-1.088-0.351-1.119 3.46-2.462-0.796 1.308-4.044-1.098-0.355-1.666 5.152 8.554 2.766 0.358-1.107-3.906-1.264zM6.15 86.717l1.03-3.184c0.226-0.699 0.533-1.299 0.92-1.8 0.394-0.499 0.833-0.888 1.318-1.168 0.484-0.28 1.001-0.448 1.55-0.504 0.552-0.062 1.094-0.006 1.628 0.166v0l6.289 2.034c0.541 0.175 1.016 0.449 1.428 0.822 0.406 0.364 0.727 0.803 0.961 1.316 0.228 0.511 0.356 1.084 0.384 1.719 0.021 0.633-0.082 1.299-0.308 1.998v0l-1.03 3.184c-0.224 0.692-0.53 1.289-0.917 1.789-0.394 0.499-0.833 0.888-1.318 1.169-0.491 0.278-1.008 0.449-1.553 0.514-0.549 0.055-1.094-0.004-1.635-0.18v0l-6.289-2.034c-0.534-0.173-1.007-0.442-1.42-0.809-0.411-0.373-0.73-0.815-0.959-1.326-0.228-0.511-0.356-1.084-0.383-1.718-0.021-0.633 0.08-1.296 0.304-1.988z" fill="#3e2c9a" data-fill-palette-color="primary"></path><path d="M11.589 72.329l1.42-3.03c0.312-0.665 0.691-1.222 1.138-1.671 0.454-0.446 0.938-0.777 1.453-0.994 0.515-0.218 1.049-0.32 1.601-0.307 0.555 0.007 1.087 0.13 1.595 0.369v0l5.986 2.803c0.514 0.241 0.952 0.572 1.313 0.994 0.358 0.412 0.621 0.888 0.79 1.426 0.162 0.535 0.218 1.12 0.165 1.753-0.058 0.631-0.243 1.279-0.554 1.944v0l-1.42 3.031c-0.309 0.659-0.686 1.212-1.134 1.66-0.454 0.446-0.938 0.777-1.453 0.995-0.521 0.215-1.057 0.32-1.605 0.316-0.552-0.014-1.085-0.141-1.6-0.382v0l-5.985-2.804c-0.508-0.238-0.944-0.565-1.309-0.98-0.361-0.422-0.623-0.9-0.785-1.435-0.162-0.535-0.218-1.12-0.166-1.753 0.058-0.631 0.242-1.275 0.55-1.935zM21.406 70.753l-4.97-2.328-0.885-0.242-0.921 0.326-0.613 0.941-1.239 2.644-0.326 1.064 0.335 0.926 0.762 0.506 4.969 2.328 0.905 0.274 0.925-0.359 0.571-0.925 1.239-2.645 0.359-1.06-0.33-0.912zM20.803 71.745l0.49 0.401-0.211 0.693-1.177 2.513-0.393 0.596-0.664-0.127-4.715-2.208-0.502-0.35 0.223-0.745 1.177-2.513 0.43-0.648 0.627 0.179z" fill="#3e2c9a" data-fill-palette-color="primary"></path><path d="M18.782 58.734l1.787-2.829c0.392-0.621 0.838-1.126 1.337-1.516 0.506-0.385 1.028-0.654 1.566-0.805 0.538-0.152 1.08-0.186 1.627-0.104 0.55 0.077 1.062 0.265 1.536 0.564v0l5.589 3.529c0.48 0.303 0.873 0.687 1.179 1.15 0.303 0.454 0.505 0.958 0.606 1.513 0.094 0.551 0.076 1.138-0.054 1.76-0.136 0.619-0.401 1.238-0.793 1.859v0l-1.787 2.83c-0.388 0.615-0.832 1.117-1.332 1.507-0.506 0.385-1.028 0.654-1.566 0.805-0.544 0.148-1.088 0.186-1.632 0.113-0.546-0.083-1.059-0.275-1.539-0.579v0l-5.59-3.528c-0.475-0.3-0.866-0.678-1.175-1.136-0.306-0.463-0.506-0.971-0.6-1.522-0.094-0.551-0.076-1.138 0.054-1.76 0.136-0.619 0.399-1.235 0.787-1.851zM28.613 58.562l-1.397-0.882-0.875-0.368-0.951 0.223-0.705 0.883-1.304 2.065-0.455 0.487c-0.128-0.031-0.236-0.067-0.325-0.107-0.089-0.04-0.19-0.075-0.303-0.105v0l-0.967-0.611-0.461-0.475 0.268-0.679 1.471-2.329 0.725-0.759-0.863-0.852-0.827 0.978-1.525 2.416-0.446 0.998 0.212 0.969 0.687 0.606 1.265 0.799 0.851 0.365 0.958-0.232 0.691-0.841 1.315-2.083 0.446-0.493c0.103 0.032 0.202 0.062 0.299 0.091 0.097 0.028 0.192 0.06 0.285 0.094v0l1.204 0.76c0.075 0.064 0.147 0.138 0.216 0.222 0.079 0.083 0.152 0.162 0.219 0.237v0l-0.289 0.653-1.437 2.276-0.715 0.802 0.843 0.864 0.814-0.997 1.509-2.391 0.483-0.998-0.208-0.955z" fill="#3e2c9a" data-fill-palette-color="primary"></path><path d="M32.701 43.315l-0.891-0.733-3.988 4.848 0.891 0.733 1.624-1.975 6.052 4.978 0.74-0.899-6.052-4.978zM27.616 46.143l2.125-2.584c0.467-0.567 0.972-1.013 1.517-1.337 0.55-0.319 1.101-0.521 1.654-0.604 0.553-0.083 1.095-0.05 1.627 0.1 0.536 0.145 1.021 0.395 1.454 0.752v0l5.105 4.199c0.439 0.361 0.781 0.79 1.026 1.288 0.244 0.488 0.382 1.014 0.412 1.577 0.025 0.559-0.066 1.139-0.274 1.739-0.213 0.597-0.552 1.179-1.018 1.746v0l-2.126 2.585c-0.462 0.562-0.965 1.005-1.51 1.328-0.55 0.319-1.101 0.521-1.654 0.604-0.558 0.079-1.103 0.048-1.634-0.092-0.531-0.15-1.017-0.406-1.455-0.766v0l-5.105-4.199c-0.433-0.357-0.775-0.781-1.025-1.274-0.245-0.498-0.381-1.026-0.405-1.585-0.025-0.559 0.066-1.139 0.273-1.739 0.213-0.597 0.55-1.176 1.013-1.738z" fill="#3e2c9a" data-fill-palette-color="primary"></path><path d="M48.493 38.506l-0.792-0.838-3.158 2.984-1.891-2.002 2.643-2.498-0.785-0.831-2.644 2.498-1.913-2.024 3.044-2.877-0.792-0.839-3.86 3.648 6.175 6.534zM37.954 34.753l2.432-2.299c0.534-0.504 1.091-0.883 1.672-1.136 0.585-0.248 1.158-0.379 1.716-0.392 0.559-0.014 1.093 0.087 1.602 0.302 0.514 0.211 0.963 0.52 1.348 0.928v0l4.54 4.804c0.39 0.413 0.676 0.882 0.857 1.406 0.181 0.515 0.252 1.054 0.212 1.616-0.045 0.557-0.208 1.121-0.489 1.692-0.286 0.565-0.695 1.1-1.229 1.605v0l-2.432 2.298c-0.529 0.5-1.083 0.876-1.664 1.13-0.585 0.248-1.158 0.379-1.717 0.392-0.564 0.009-1.1-0.09-1.609-0.295-0.509-0.215-0.958-0.529-1.348-0.943v0l-4.54-4.804c-0.385-0.408-0.671-0.872-0.858-1.392-0.181-0.525-0.249-1.066-0.204-1.623 0.045-0.557 0.208-1.121 0.489-1.692 0.286-0.565 0.693-1.098 1.222-1.597z" fill="#3e2c9a" data-fill-palette-color="primary"></path><path d="M49.635 24.745l2.701-1.976c0.593-0.434 1.193-0.74 1.801-0.919 0.612-0.173 1.196-0.231 1.752-0.174 0.556 0.056 1.073 0.223 1.551 0.5 0.483 0.273 0.89 0.636 1.222 1.089v0l3.903 5.335c0.336 0.459 0.56 0.959 0.675 1.502 0.116 0.534 0.118 1.077 0.008 1.63-0.115 0.547-0.347 1.087-0.697 1.617-0.354 0.525-0.827 1.005-1.42 1.439v0l-2.701 1.976c-0.587 0.43-1.185 0.734-1.792 0.912-0.612 0.173-1.196 0.231-1.753 0.175-0.561-0.062-1.08-0.227-1.559-0.495-0.478-0.277-0.884-0.645-1.22-1.103v0l-3.903-5.335c-0.331-0.453-0.557-0.949-0.677-1.488-0.114-0.543-0.114-1.089 0.001-1.636 0.115-0.547 0.347-1.087 0.697-1.617 0.354-0.525 0.825-1.003 1.411-1.432zM56.607 27.937l0.484 0.38 1.584 2.164 0.931-0.682-1.657-2.264-0.9-0.578-1.262 0.369 0.627-1.167-0.308-0.984-0.718-0.982-0.635-0.656-1.119-0.314-0.973 0.518-3.271 2.394 5.309 7.255 0.939-0.688-2.135-2.919 2.281-1.669zM51.011 26.378l2.281-1.669 0.817-0.186 0.433 0.469 0.682 0.931 0.224 0.57-0.351 0.682-2.282 1.669z" fill="#3e2c9a" data-fill-palette-color="primary"></path><path d="M62.343 16.269v0c0.632-0.347 1.255-0.569 1.87-0.667 0.615-0.098 1.196-0.088 1.743 0.029 0.537 0.115 1.026 0.333 1.467 0.656 0.441 0.322 0.801 0.726 1.081 1.213v0l3.293 5.731c0.283 0.493 0.454 1.013 0.514 1.563 0.05 0.546-0.01 1.088-0.181 1.626-0.18 0.535-0.47 1.045-0.87 1.53-0.404 0.48-0.927 0.904-1.57 1.274v0c-0.631 0.362-1.251 0.591-1.86 0.685-0.615 0.098-1.195 0.083-1.739-0.044-0.544-0.127-1.037-0.351-1.478-0.673-0.441-0.322-0.801-0.726-1.08-1.213v0l-3.293-5.732c-0.28-0.487-0.449-1.004-0.509-1.553-0.054-0.552 0.006-1.094 0.181-1.626 0.174-0.531 0.464-1.042 0.87-1.531 0.41-0.483 0.93-0.906 1.561-1.268zM63.343 16.821l-0.955 0.549 1.388 2.415 0.955-0.549z" fill="#3e2c9a" data-fill-palette-color="primary"></path><path d="M72.931 10.926l3.067-1.337c0.673-0.294 1.326-0.461 1.958-0.502 0.635-0.035 1.218 0.036 1.748 0.213 0.531 0.177 0.999 0.453 1.404 0.827 0.412 0.372 0.73 0.816 0.954 1.33v0l2.642 6.059c0.227 0.521 0.337 1.059 0.33 1.614-0.004 0.546-0.12 1.077-0.349 1.592-0.232 0.509-0.576 0.984-1.034 1.426-0.46 0.435-1.027 0.799-1.7 1.093v0l-3.068 1.337c-0.667 0.291-1.316 0.457-1.948 0.498-0.635 0.035-1.218-0.036-1.748-0.213-0.533-0.183-1.005-0.458-1.414-0.823-0.405-0.375-0.722-0.823-0.949-1.344v0l-2.641-6.059c-0.224-0.514-0.336-1.048-0.335-1.6 0.007-0.555 0.127-1.087 0.358-1.596 0.232-0.509 0.576-0.984 1.034-1.426 0.46-0.435 1.024-0.798 1.691-1.089zM81.161 16.306l-0.661-1.514-0.516-0.796-0.913-0.35-1.079 0.334-2.238 0.976-0.65 0.148c-0.088-0.098-0.158-0.188-0.21-0.272-0.051-0.083-0.115-0.169-0.191-0.257v0l-0.457-1.048-0.114-0.653 0.603-0.41 2.525-1.101 1.026-0.22-0.236-1.19-1.232 0.345-2.62 1.142-0.929 0.575-0.369 0.92 0.228 0.887 0.598 1.372 0.499 0.78 0.922 0.347 1.045-0.308 2.257-0.985 0.646-0.157c0.067 0.084 0.133 0.165 0.197 0.243 0.064 0.078 0.125 0.157 0.183 0.238v0l0.569 1.305c0.026 0.094 0.044 0.196 0.054 0.306 0.019 0.113 0.035 0.219 0.048 0.319v0l-0.606 0.377-2.468 1.076-1.042 0.262 0.212 1.188 1.234-0.368 2.592-1.129 0.96-0.555 0.364-0.907z" fill="#3e2c9a" data-fill-palette-color="primary"></path><path d="M99.574 12.507l-0.278-1.119-4.216 1.05-0.665-2.673 3.529-0.879-0.276-1.109-3.53 0.879-0.673-2.703 4.065-1.012-0.279-1.119-5.153 1.283 2.172 8.723zM92.235 4.064l3.247-0.809c0.713-0.177 1.384-0.234 2.014-0.169 0.632 0.071 1.195 0.238 1.688 0.501 0.494 0.263 0.909 0.613 1.247 1.049 0.344 0.436 0.584 0.926 0.72 1.471v0l1.597 6.414c0.137 0.551 0.156 1.1 0.056 1.646-0.095 0.538-0.298 1.042-0.609 1.511-0.313 0.464-0.732 0.875-1.256 1.234-0.526 0.352-1.146 0.617-1.859 0.795v0l-3.247 0.809c-0.706 0.176-1.374 0.231-2.004 0.167-0.632-0.071-1.195-0.238-1.689-0.501-0.495-0.269-0.914-0.618-1.256-1.047-0.337-0.437-0.575-0.931-0.712-1.483v0l-1.597-6.414c-0.136-0.545-0.157-1.089-0.064-1.634 0.1-0.546 0.306-1.051 0.619-1.514 0.313-0.464 0.732-0.875 1.256-1.234 0.526-0.352 1.142-0.616 1.849-0.792z" fill="#84e9a9" data-fill-palette-color="accent"></path><path d="M113.84 10.338l-0.86-7.203-0.263-0.89-0.773-0.598-1.109-0.004-2.704 0.323-1.908 0.499 1.033 8.659 1.145-0.137-0.915-7.668 0.82-0.233 2.591-0.309 0.766 0.023 0.18 0.628 0.841 7.048zM107.324 1.078l3.323-0.396c0.729-0.087 1.402-0.059 2.019 0.083 0.618 0.15 1.155 0.385 1.613 0.708 0.457 0.322 0.826 0.721 1.106 1.197 0.287 0.475 0.464 0.991 0.53 1.549v0l0.783 6.563c0.067 0.564 0.017 1.111-0.15 1.64-0.161 0.522-0.425 0.996-0.793 1.424-0.368 0.421-0.835 0.776-1.401 1.067-0.566 0.284-1.214 0.469-1.943 0.557v0l-3.323 0.396c-0.722 0.086-1.392 0.058-2.009-0.085-0.618-0.15-1.155-0.385-1.613-0.707-0.458-0.329-0.83-0.728-1.116-1.196-0.28-0.476-0.454-0.996-0.521-1.561v0l-0.783-6.563c-0.066-0.557-0.02-1.1 0.141-1.629 0.167-0.529 0.435-1.004 0.803-1.425 0.368-0.421 0.835-0.776 1.401-1.067 0.566-0.284 1.211-0.469 1.933-0.555z" fill="#84e9a9" data-fill-palette-color="accent"></path><path d="M128.067 2.165l0.008-1.153-6.277-0.04-0.008 1.153 2.557 0.016-0.05 7.837 1.164 0.007 0.05-7.836zM122.666 0l3.347 0.022c0.734 0.005 1.399 0.116 1.993 0.334 0.594 0.226 1.098 0.527 1.512 0.904 0.413 0.377 0.729 0.819 0.948 1.326 0.225 0.507 0.336 1.041 0.332 1.603v0l-0.042 6.609c-0.004 0.568-0.121 1.104-0.353 1.609-0.225 0.497-0.546 0.935-0.965 1.314-0.418 0.371-0.926 0.666-1.523 0.884-0.597 0.211-1.263 0.314-1.997 0.309v0l-3.347-0.021c-0.727-0.005-1.388-0.116-1.983-0.335-0.594-0.226-1.098-0.527-1.511-0.903-0.413-0.384-0.733-0.826-0.958-1.326-0.218-0.507-0.326-1.045-0.323-1.613v0l0.043-6.61c0.004-0.561 0.118-1.094 0.342-1.599 0.232-0.504 0.557-0.942 0.975-1.313 0.418-0.371 0.926-0.666 1.523-0.884 0.597-0.211 1.26-0.314 1.987-0.31z" fill="#84e9a9" data-fill-palette-color="accent"></path><path d="M141.755 11.393l0.151-1.144-4.306-0.57 0.361-2.73 3.606 0.477 0.15-1.133-3.606-0.477 0.365-2.762 4.152 0.55 0.151-1.144-5.264-0.696-1.179 8.912zM138.024 0.846l3.317 0.438c0.728 0.096 1.373 0.29 1.936 0.581 0.562 0.298 1.024 0.66 1.387 1.086 0.363 0.425 0.621 0.903 0.775 1.433 0.16 0.531 0.204 1.075 0.13 1.632v0l-0.866 6.553c-0.075 0.563-0.258 1.081-0.552 1.552-0.285 0.465-0.659 0.86-1.121 1.183-0.461 0.316-1.002 0.545-1.621 0.687-0.619 0.135-1.292 0.154-2.021 0.058v0l-3.317-0.439c-0.721-0.095-1.363-0.289-1.926-0.58-0.562-0.298-1.024-0.66-1.387-1.085-0.362-0.432-0.624-0.911-0.785-1.435-0.153-0.53-0.193-1.077-0.118-1.641v0l0.866-6.552c0.074-0.556 0.253-1.071 0.54-1.544 0.293-0.471 0.67-0.865 1.131-1.181 0.461-0.316 1.002-0.545 1.622-0.687 0.619-0.135 1.289-0.154 2.01-0.059z" fill="#84e9a9" data-fill-palette-color="accent"></path><path d="M153.157 3.602l3.236 0.85c0.71 0.187 1.326 0.459 1.849 0.819 0.52 0.366 0.934 0.782 1.24 1.25 0.307 0.467 0.504 0.974 0.59 1.519 0.093 0.547 0.068 1.092-0.075 1.635v0l-1.679 6.393c-0.144 0.55-0.391 1.04-0.741 1.471-0.341 0.426-0.761 0.771-1.26 1.034-0.497 0.256-1.062 0.416-1.695 0.479-0.631 0.056-1.301-0.009-2.012-0.195v0l-3.236-0.85c-0.704-0.185-1.316-0.457-1.838-0.816-0.52-0.366-0.934-0.782-1.241-1.25-0.305-0.474-0.505-0.982-0.6-1.522-0.086-0.546-0.057-1.093 0.088-1.643v0l1.679-6.393c0.143-0.543 0.385-1.031 0.728-1.463 0.35-0.431 0.773-0.775 1.27-1.031 0.497-0.256 1.062-0.416 1.695-0.479 0.631-0.056 1.298 0.008 2.002 0.192zM155.075 11.026l0.011 0.615-0.681 2.594 1.115 0.293 0.713-2.714-0.118-1.063-1.083-0.746 1.301-0.25 0.57-0.86 0.309-1.176 0.109-0.906-0.461-1.067-1.016-0.428-3.921-1.03-2.283 8.695 1.126 0.296 0.918-3.498 2.735 0.718zM152.756 5.7l2.734 0.718 0.66 0.517-0.091 0.632-0.293 1.115-0.301 0.534-0.751 0.157-2.734-0.718z" fill="#84e9a9" data-fill-palette-color="accent"></path><path d="M172.056 12.226l0.43-1.07-5.824-2.342-0.43 1.071 2.372 0.953-2.923 7.271 1.08 0.434 2.923-7.27zM167.827 8.23l3.105 1.248c0.681 0.274 1.258 0.622 1.731 1.043 0.47 0.428 0.828 0.893 1.075 1.396 0.246 0.502 0.378 1.029 0.394 1.581 0.023 0.555-0.069 1.092-0.278 1.613v0l-2.466 6.133c-0.212 0.527-0.518 0.983-0.919 1.366-0.392 0.38-0.852 0.669-1.38 0.868-0.525 0.192-1.106 0.28-1.741 0.264-0.633-0.023-1.29-0.171-1.971-0.446v0l-3.105-1.248c-0.675-0.271-1.249-0.618-1.722-1.04-0.47-0.428-0.828-0.893-1.074-1.395-0.244-0.509-0.378-1.037-0.405-1.585-0.017-0.552 0.08-1.092 0.292-1.619v0l2.466-6.132c0.209-0.521 0.511-0.974 0.906-1.361 0.401-0.384 0.864-0.672 1.389-0.864 0.525-0.192 1.106-0.28 1.741-0.264 0.633 0.023 1.287 0.17 1.962 0.442z" fill="#84e9a9" data-fill-palette-color="accent"></path><path d="M181.802 14.654l2.925 1.626c0.642 0.357 1.171 0.774 1.587 1.252 0.413 0.483 0.71 0.99 0.892 1.518 0.182 0.529 0.246 1.068 0.194 1.618-0.046 0.553-0.205 1.075-0.478 1.566v0l-3.212 5.777c-0.276 0.497-0.637 0.91-1.082 1.241-0.436 0.328-0.929 0.558-1.477 0.689-0.545 0.125-1.132 0.14-1.761 0.044-0.625-0.102-1.259-0.331-1.9-0.688v0l-2.925-1.627c-0.636-0.354-1.162-0.769-1.579-1.246-0.413-0.483-0.71-0.99-0.891-1.518-0.178-0.535-0.246-1.076-0.204-1.624 0.052-0.55 0.216-1.073 0.492-1.569v0l3.212-5.777c0.273-0.49 0.629-0.903 1.069-1.237 0.446-0.331 0.941-0.559 1.486-0.684 0.545-0.125 1.132-0.14 1.76-0.044 0.625 0.102 1.256 0.33 1.892 0.683zM181.709 23.354l-0.944 2.127 1.08 0.601 3.181-7.495-0.262-0.919-1.157-0.892-1.017-0.566-1.369-0.511-0.909 0.267-4.707 6.646 1.127 0.627 1.28-1.94 0.576-0.822 3.506 1.95zM183.01 17.764l0.81 0.64c-0.234 0.536-0.452 1.049-0.654 1.539-0.192 0.488-0.405 1-0.64 1.535v0l-3.342-1.858 1.892-2.741c0.189 0.073 0.357 0.135 0.504 0.185 0.141 0.046 0.309 0.108 0.504 0.184v0z" fill="#84e9a9" data-fill-palette-color="accent"></path><path d="M191.022 30.881l-2.062-1.511-0.682 0.93 5.063 3.711 0.682-0.931-2.062-1.511 3.95-5.39 2.062 1.511 0.682-0.93-5.063-3.711-0.682 0.931 2.062 1.511zM194.865 22.771l2.7 1.978c0.592 0.434 1.065 0.914 1.419 1.44 0.35 0.531 0.581 1.07 0.695 1.618 0.114 0.548 0.111 1.091-0.009 1.629-0.115 0.543-0.338 1.041-0.669 1.494v0l-3.908 5.331c-0.336 0.458-0.745 0.824-1.229 1.097-0.474 0.271-0.991 0.438-1.551 0.499-0.556 0.056-1.141-0.003-1.752-0.176-0.608-0.179-1.208-0.486-1.8-0.919v0l-2.699-1.979c-0.587-0.43-1.057-0.908-1.411-1.433-0.35-0.531-0.581-1.07-0.695-1.618-0.11-0.553-0.11-1.098 0-1.636 0.12-0.539 0.348-1.038 0.684-1.496v0l3.907-5.331c0.332-0.453 0.737-0.817 1.215-1.094 0.483-0.273 1.003-0.437 1.56-0.493 0.556-0.056 1.141 0.003 1.752 0.176 0.608 0.179 1.205 0.484 1.791 0.913z" fill="#84e9a9" data-fill-palette-color="accent"></path><path d="M203.866 43.39l4.987-5.269 0.515-0.771-0.034-0.977-0.707-0.855-1.978-1.872-1.605-1.147-5.993 6.333 0.837 0.793 5.308-5.608 0.705 0.48 1.894 1.794 0.473 0.604-0.368 0.539-4.879 5.156zM206.815 32.458l2.431 2.3c0.533 0.505 0.943 1.04 1.227 1.606 0.28 0.571 0.443 1.135 0.488 1.692 0.045 0.557-0.026 1.096-0.213 1.616-0.182 0.525-0.465 0.991-0.851 1.398v0l-4.543 4.801c-0.391 0.413-0.843 0.724-1.357 0.934-0.504 0.21-1.038 0.31-1.602 0.301-0.559-0.014-1.131-0.145-1.716-0.393-0.58-0.254-1.137-0.633-1.671-1.138v0l-2.43-2.3c-0.528-0.5-0.935-1.033-1.221-1.599-0.28-0.571-0.443-1.135-0.487-1.692-0.04-0.563 0.028-1.104 0.205-1.623 0.187-0.52 0.475-0.986 0.866-1.399v0l4.543-4.8c0.386-0.408 0.833-0.719 1.342-0.934 0.514-0.21 1.05-0.308 1.609-0.294 0.559 0.014 1.131 0.145 1.717 0.393 0.58 0.254 1.135 0.63 1.663 1.131z" fill="#84e9a9" data-fill-palette-color="accent"></path><path d="M217.459 43.563l2.124 2.586c0.466 0.568 0.805 1.15 1.017 1.746 0.207 0.601 0.298 1.181 0.273 1.74-0.025 0.559-0.163 1.084-0.414 1.577-0.246 0.498-0.585 0.925-1.019 1.281v0l-5.108 4.195c-0.439 0.361-0.927 0.613-1.462 0.757-0.526 0.145-1.069 0.178-1.627 0.099-0.553-0.084-1.104-0.286-1.654-0.606-0.544-0.324-1.049-0.77-1.515-1.337v0l-2.124-2.586c-0.462-0.562-0.799-1.142-1.011-1.739-0.207-0.601-0.298-1.181-0.272-1.74 0.031-0.563 0.166-1.091 0.406-1.584 0.25-0.492 0.595-0.919 1.034-1.28v0l5.108-4.195c0.434-0.356 0.916-0.609 1.448-0.759 0.536-0.144 1.08-0.175 1.634-0.09 0.553 0.084 1.104 0.286 1.653 0.605 0.544 0.324 1.047 0.767 1.509 1.33zM217.269 46.328l0.347-0.756-0.239-0.57-0.904-1.1-0.701-0.608-0.98-0.097-6.288 5.165 0.738 0.9 5.984-4.914c0.078 0.062 0.145 0.123 0.203 0.182 0.054 0.054 0.122 0.11 0.205 0.168v0l0.785 0.956c0.031 0.082 0.069 0.154 0.112 0.217 0.043 0.063 0.081 0.131 0.113 0.203v0l-3.566 2.929 0.739 0.9 3.566-2.929 0.369 0.302 0.791 0.964c0.036 0.087 0.08 0.168 0.132 0.242 0.047 0.069 0.094 0.147 0.139 0.235v0l-5.984 4.914 0.733 0.891 6.288-5.164 0.103-0.972-0.46-0.806-0.904-1.1-0.512-0.346z" fill="#84e9a9" data-fill-palette-color="accent"></path><path d="M220.909 65.523l0.976-0.615-2.316-3.675 2.33-1.469 1.939 3.078 0.968-0.61-1.94-3.077 2.356-1.485 2.234 3.543 0.976-0.615-2.832-4.493-7.605 4.793zM226.631 55.909l1.785 2.831c0.392 0.621 0.655 1.241 0.791 1.86 0.13 0.622 0.148 1.209 0.053 1.761-0.095 0.551-0.297 1.055-0.607 1.512-0.306 0.463-0.696 0.844-1.171 1.144v0l-5.592 3.524c-0.481 0.303-0.996 0.493-1.545 0.569-0.54 0.078-1.082 0.043-1.627-0.105-0.538-0.152-1.06-0.421-1.565-0.807-0.499-0.39-0.945-0.895-1.337-1.517v0l-1.784-2.831c-0.388-0.615-0.65-1.232-0.786-1.851-0.13-0.622-0.148-1.209-0.053-1.76 0.101-0.555 0.301-1.062 0.602-1.521 0.31-0.457 0.705-0.837 1.185-1.141v0l5.592-3.524c0.475-0.299 0.985-0.49 1.531-0.572 0.55-0.076 1.094-0.038 1.632 0.114 0.538 0.152 1.06 0.421 1.565 0.807 0.499 0.39 0.943 0.892 1.331 1.507z" fill="#84e9a9" data-fill-palette-color="accent"></path><path d="M227.437 78.392l6.572-3.072 0.762-0.528 0.327-0.922-0.344-1.055-1.154-2.467-1.072-1.655-7.899 3.692 0.489 1.046 6.995-3.271 0.479 0.706 1.105 2.363 0.217 0.736-0.539 0.367-6.431 3.006zM234.191 69.304l1.417 3.032c0.311 0.665 0.495 1.313 0.553 1.944 0.051 0.634-0.004 1.218-0.167 1.753-0.163 0.535-0.426 1.01-0.791 1.425-0.361 0.421-0.796 0.751-1.305 0.988v0l-5.988 2.799c-0.515 0.241-1.05 0.364-1.604 0.372-0.546 0.01-1.079-0.092-1.601-0.307-0.515-0.218-0.999-0.55-1.452-0.996-0.447-0.449-0.826-1.006-1.137-1.672v0l-1.417-3.031c-0.308-0.659-0.491-1.304-0.549-1.935-0.051-0.634 0.004-1.218 0.167-1.753 0.169-0.538 0.431-1.016 0.787-1.435 0.364-0.415 0.804-0.743 1.318-0.983v0l5.988-2.799c0.508-0.238 1.039-0.363 1.591-0.377 0.555-0.007 1.09 0.098 1.605 0.317 0.515 0.218 0.999 0.55 1.452 0.996 0.447 0.449 0.824 1.003 1.133 1.662z" fill="#84e9a9" data-fill-palette-color="accent"></path><path d="M239.654 89.346l1.098-0.355-1.928-5.974-1.098 0.354 0.785 2.434-7.457 2.405 0.357 1.108 7.458-2.406zM240.019 83.538l1.027 3.185c0.225 0.699 0.327 1.365 0.306 1.998-0.028 0.635-0.156 1.208-0.384 1.719-0.228 0.511-0.549 0.949-0.963 1.315-0.411 0.373-0.884 0.645-1.418 0.818v0l-6.291 2.029c-0.541 0.174-1.087 0.23-1.638 0.168-0.543-0.058-1.059-0.226-1.55-0.505-0.484-0.281-0.923-0.671-1.316-1.169-0.387-0.501-0.694-1.101-0.919-1.801v0l-1.028-3.184c-0.223-0.692-0.324-1.355-0.303-1.988 0.028-0.635 0.156-1.208 0.385-1.719 0.235-0.513 0.555-0.954 0.96-1.325 0.413-0.366 0.89-0.637 1.431-0.811v0l6.29-2.029c0.534-0.172 1.076-0.231 1.626-0.175 0.552 0.062 1.069 0.234 1.552 0.514 0.484 0.281 0.923 0.671 1.317 1.17 0.387 0.501 0.693 1.098 0.916 1.79z" fill="#84e9a9" data-fill-palette-color="accent"></path><path d="M2.298 123.599c0-3.142 2.547-5.69 5.689-5.69 3.142 0 5.69 2.547 5.69 5.69 0 3.142-2.547 5.69-5.69 5.69-3.142 0-5.69-2.547-5.689-5.69z" fill="#3e2c9a" data-fill-palette-color="primary"></path><path d="M233.523 123.599c0-3.142 2.547-5.69 5.69-5.69 3.142 0 5.69 2.547 5.689 5.69 0 3.142-2.547 5.69-5.689 5.69-3.142 0-5.69-2.547-5.69-5.69z" fill="#3e2c9a" data-fill-palette-color="primary"></path></g><g id="text-1"><path d="M16.082 161.846l1.087-0.352-1.119-3.461 2.462-0.796 1.308 4.044 1.098-0.355-1.666-5.152-8.554 2.767 0.358 1.107 3.906-1.263zM20.319 155.899l1.03 3.184c0.226 0.699 0.329 1.365 0.307 1.998-0.028 0.635-0.155 1.208-0.383 1.719-0.228 0.511-0.549 0.949-0.962 1.316-0.411 0.373-0.883 0.646-1.417 0.818v0l-6.289 2.034c-0.541 0.175-1.087 0.231-1.639 0.17-0.543-0.057-1.06-0.225-1.55-0.504-0.484-0.28-0.923-0.67-1.317-1.168-0.388-0.501-0.695-1.101-0.921-1.8v0l-1.03-3.184c-0.224-0.692-0.325-1.355-0.304-1.988 0.028-0.635 0.155-1.208 0.384-1.719 0.235-0.513 0.554-0.955 0.958-1.325 0.413-0.367 0.89-0.637 1.43-0.813v0l6.289-2.034c0.534-0.173 1.076-0.231 1.626-0.176 0.552 0.062 1.069 0.233 1.553 0.514 0.484 0.28 0.923 0.67 1.317 1.168 0.388 0.501 0.694 1.097 0.918 1.79z" fill="#3e2c9a" data-fill-palette-color="primary"></path><path d="M25.075 168.553l1.419 3.03c0.312 0.665 0.496 1.313 0.555 1.944 0.052 0.634-0.003 1.218-0.166 1.753-0.162 0.535-0.426 1.01-0.79 1.426-0.361 0.422-0.796 0.751-1.304 0.989v0l-5.985 2.804c-0.514 0.241-1.049 0.365-1.605 0.373-0.546 0.011-1.079-0.091-1.6-0.306-0.515-0.218-0.999-0.549-1.453-0.995-0.447-0.448-0.827-1.005-1.139-1.671v0l-1.419-3.03c-0.309-0.659-0.492-1.304-0.55-1.935-0.052-0.634 0.003-1.218 0.165-1.753 0.169-0.538 0.431-1.016 0.786-1.435 0.364-0.415 0.803-0.743 1.318-0.984v0l5.985-2.804c0.508-0.238 1.038-0.364 1.591-0.378 0.555-0.007 1.09 0.098 1.605 0.316 0.515 0.218 0.999 0.549 1.453 0.995 0.447 0.448 0.825 1.002 1.134 1.661zM20.002 177.103l4.969-2.328 0.753-0.524 0.339-0.917-0.33-1.073-1.239-2.645-0.608-0.931-0.926-0.335-0.876 0.261-4.97 2.327-0.789 0.519-0.317 0.941 0.345 1.032 1.239 2.644 0.585 0.954 0.912 0.331zM19.625 176.005l-0.621 0.119-0.398-0.605-1.177-2.513-0.206-0.684 0.522-0.428 4.716-2.209 0.59-0.161 0.429 0.648 1.177 2.513 0.223 0.744-0.539 0.368z" fill="#3e2c9a" data-fill-palette-color="primary"></path><path d="M31.374 180.514l1.786 2.83c0.392 0.621 0.656 1.241 0.793 1.859 0.131 0.622 0.149 1.209 0.055 1.76-0.094 0.551-0.296 1.056-0.606 1.514-0.306 0.463-0.696 0.845-1.17 1.144v0l-5.59 3.529c-0.48 0.303-0.995 0.493-1.545 0.57-0.54 0.079-1.082 0.044-1.626-0.104-0.538-0.152-1.06-0.42-1.566-0.806-0.5-0.389-0.946-0.894-1.338-1.515v0l-1.786-2.83c-0.388-0.615-0.651-1.232-0.788-1.851-0.131-0.622-0.149-1.209-0.054-1.76 0.1-0.555 0.3-1.062 0.6-1.522 0.309-0.457 0.704-0.838 1.185-1.141v0l5.589-3.529c0.475-0.3 0.985-0.491 1.531-0.573 0.55-0.077 1.094-0.039 1.632 0.113 0.538 0.152 1.06 0.42 1.566 0.806 0.5 0.389 0.944 0.891 1.332 1.506zM27.302 189.464l1.397-0.882 0.708-0.631 0.208-0.955-0.493-1.016-1.304-2.065-0.244-0.621c0.083-0.102 0.162-0.184 0.237-0.247 0.075-0.064 0.15-0.139 0.224-0.228v0l0.967-0.611 0.628-0.212 0.497 0.534 1.47 2.329 0.374 0.981 1.141-0.413-0.528-1.166-1.526-2.417-0.709-0.83-0.966-0.226-0.842 0.359-1.265 0.799-0.696 0.612-0.203 0.963 0.463 0.986 1.315 2.083 0.253 0.615c-0.073 0.079-0.143 0.156-0.211 0.231-0.067 0.075-0.136 0.148-0.207 0.217v0l-1.204 0.76c-0.089 0.04-0.187 0.073-0.294 0.099-0.109 0.036-0.211 0.068-0.308 0.097v0l-0.465-0.543-1.437-2.276-0.416-0.99-1.143 0.389 0.551 1.164 1.509 2.391 0.693 0.865 0.952 0.222z" fill="#3e2c9a" data-fill-palette-color="primary"></path><path d="M40.911 197.131l0.891-0.733-3.988-4.848-0.891 0.733 1.624 1.974-6.052 4.978 0.739 0.899 6.053-4.978zM39.116 191.596l2.126 2.584c0.467 0.567 0.806 1.149 1.019 1.746 0.207 0.601 0.298 1.181 0.274 1.74-0.025 0.559-0.162 1.084-0.412 1.577-0.245 0.498-0.585 0.925-1.019 1.281v0l-5.105 4.199c-0.439 0.361-0.926 0.614-1.462 0.758-0.526 0.146-1.068 0.179-1.626 0.1-0.553-0.083-1.104-0.285-1.654-0.604-0.544-0.324-1.05-0.769-1.517-1.336v0l-2.126-2.585c-0.462-0.562-0.8-1.141-1.012-1.737-0.207-0.601-0.298-1.181-0.273-1.74 0.03-0.563 0.165-1.091 0.405-1.585 0.25-0.493 0.594-0.919 1.033-1.28v0l5.105-4.199c0.433-0.357 0.916-0.61 1.447-0.76 0.536-0.145 1.08-0.175 1.633-0.092 0.553 0.083 1.104 0.285 1.655 0.604 0.544 0.324 1.048 0.767 1.509 1.329z" fill="#3e2c9a" data-fill-palette-color="primary"></path><path d="M45.03 212.357l0.792-0.839-3.157-2.983 1.891-2.002 2.644 2.498 0.785-0.831-2.643-2.498 1.913-2.025 3.044 2.877 0.792-0.838-3.86-3.648-6.174 6.534zM48.182 201.622l2.432 2.299c0.534 0.504 0.943 1.039 1.229 1.604 0.281 0.57 0.444 1.134 0.489 1.692 0.045 0.557-0.025 1.096-0.212 1.616-0.181 0.525-0.465 0.991-0.85 1.399v0l-4.54 4.804c-0.39 0.413-0.842 0.725-1.355 0.935-0.504 0.21-1.038 0.311-1.602 0.303-0.559-0.014-1.131-0.144-1.717-0.393-0.581-0.253-1.138-0.632-1.671-1.136v0l-2.432-2.298c-0.529-0.5-0.936-1.032-1.222-1.598-0.281-0.57-0.444-1.134-0.489-1.692-0.04-0.562 0.028-1.104 0.204-1.623 0.186-0.52 0.474-0.986 0.865-1.399v0l4.54-4.804c0.385-0.408 0.832-0.72 1.341-0.935 0.514-0.211 1.05-0.309 1.609-0.296 0.559 0.014 1.131 0.144 1.717 0.393 0.581 0.253 1.135 0.63 1.664 1.129z" fill="#3e2c9a" data-fill-palette-color="primary"></path><path d="M58.429 210.436l2.701 1.976c0.593 0.434 1.066 0.913 1.42 1.438 0.35 0.531 0.582 1.07 0.697 1.618 0.115 0.547 0.112 1.091-0.008 1.63-0.114 0.543-0.337 1.041-0.669 1.494v0l-3.903 5.334c-0.336 0.459-0.745 0.824-1.228 1.098-0.474 0.272-0.991 0.439-1.551 0.5-0.556 0.056-1.141-0.002-1.752-0.175-0.608-0.179-1.208-0.485-1.801-0.918v0l-2.701-1.976c-0.587-0.43-1.058-0.907-1.411-1.432-0.35-0.531-0.582-1.07-0.697-1.618-0.11-0.553-0.111-1.098-0.001-1.636 0.12-0.539 0.347-1.038 0.683-1.496v0l3.903-5.334c0.331-0.453 0.736-0.818 1.214-1.096 0.483-0.273 1.003-0.438 1.559-0.494 0.556-0.056 1.141 0.002 1.753 0.175 0.608 0.179 1.205 0.483 1.792 0.912zM57.496 218.047l-0.216 0.576-1.583 2.164 0.931 0.681 1.657-2.264 0.279-1.033-0.734-1.091 1.302 0.245 0.845-0.592 0.718-0.982 0.433-0.803-0.038-1.161-0.789-0.771-3.271-2.393-5.308 7.255 0.939 0.687 2.136-2.919 2.281 1.67zM57.288 212.241l2.282 1.67 0.424 0.722-0.316 0.555-0.681 0.931-0.476 0.386-0.756-0.129-2.281-1.669z" fill="#3e2c9a" data-fill-palette-color="primary"></path><path d="M69.761 218.017v0c0.618 0.371 1.124 0.798 1.518 1.28 0.394 0.482 0.678 0.989 0.853 1.521 0.172 0.522 0.229 1.055 0.173 1.597-0.056 0.543-0.224 1.058-0.504 1.545v0l-3.293 5.731c-0.283 0.493-0.647 0.903-1.091 1.231-0.447 0.319-0.945 0.54-1.495 0.663-0.553 0.114-1.14 0.12-1.761 0.019-0.618-0.107-1.248-0.345-1.891-0.714v0c-0.631-0.362-1.14-0.783-1.528-1.262-0.394-0.482-0.674-0.99-0.839-1.524-0.165-0.534-0.219-1.073-0.162-1.616 0.056-0.543 0.224-1.058 0.504-1.544v0l3.292-5.732c0.28-0.487 0.641-0.894 1.086-1.222 0.45-0.325 0.949-0.546 1.496-0.663 0.547-0.117 1.134-0.124 1.761-0.019 0.624 0.111 1.251 0.347 1.881 0.709zM69.788 219.16l-0.955-0.549-1.387 2.415 0.955 0.549z" fill="#3e2c9a" data-fill-palette-color="primary"></path><path d="M78.882 222.622l3.068 1.337c0.673 0.294 1.24 0.658 1.7 1.093 0.458 0.441 0.802 0.917 1.034 1.426 0.232 0.509 0.348 1.04 0.349 1.592 0.007 0.555-0.101 1.09-0.325 1.604v0l-2.642 6.059c-0.227 0.521-0.546 0.967-0.958 1.339-0.403 0.369-0.871 0.645-1.404 0.828-0.531 0.177-1.113 0.248-1.748 0.213-0.632-0.041-1.285-0.209-1.958-0.502v0l-3.068-1.338c-0.667-0.291-1.23-0.654-1.691-1.088-0.458-0.441-0.802-0.917-1.033-1.426-0.229-0.515-0.348-1.048-0.359-1.596-0.001-0.552 0.112-1.089 0.339-1.61v0l2.642-6.059c0.224-0.514 0.539-0.959 0.944-1.334 0.412-0.372 0.883-0.647 1.414-0.824 0.531-0.177 1.113-0.248 1.748-0.212 0.632 0.041 1.282 0.207 1.948 0.498zM80.541 232.313l0.661-1.515 0.231-0.919-0.365-0.907-0.979-0.563-2.238-0.977-0.551-0.376c0.012-0.131 0.031-0.244 0.057-0.338 0.026-0.094 0.045-0.199 0.058-0.314v0l0.457-1.048 0.4-0.529 0.712 0.163 2.524 1.101 0.86 0.601 0.712-0.982-1.092-0.668-2.62-1.143-1.053-0.289-0.926 0.356-0.495 0.771-0.598 1.372-0.232 0.896 0.374 0.911 0.937 0.556 2.257 0.985 0.555 0.366c-0.016 0.106-0.031 0.21-0.044 0.31-0.013 0.1-0.03 0.199-0.05 0.295v0l-0.569 1.306c-0.051 0.083-0.114 0.166-0.187 0.247-0.07 0.091-0.137 0.175-0.201 0.252v0l-0.689-0.187-2.468-1.076-0.901-0.585-0.726 0.964 1.109 0.654 2.591 1.13 1.06 0.326 0.912-0.351z" fill="#3e2c9a" data-fill-palette-color="primary"></path><path d="M98.356 239.584l0.279-1.12-4.216-1.049 0.666-2.673 3.529 0.879 0.277-1.109-3.53-0.879 0.673-2.703 4.064 1.012 0.279-1.12-5.154-1.283-2.172 8.724zM95.832 228.684l3.248 0.809c0.713 0.177 1.332 0.442 1.858 0.795 0.525 0.359 0.943 0.77 1.257 1.234 0.313 0.464 0.516 0.967 0.609 1.511 0.1 0.546 0.082 1.091-0.054 1.636v0l-1.597 6.414c-0.137 0.551-0.378 1.045-0.722 1.481-0.336 0.431-0.751 0.78-1.247 1.049-0.494 0.263-1.057 0.43-1.688 0.501-0.63 0.064-1.301 0.008-2.014-0.169v0l-3.248-0.809c-0.706-0.176-1.322-0.44-1.848-0.792-0.525-0.359-0.943-0.77-1.257-1.234-0.311-0.47-0.518-0.975-0.619-1.514-0.093-0.544-0.071-1.092 0.067-1.644v0l1.597-6.414c0.136-0.545 0.372-1.036 0.709-1.473 0.344-0.436 0.763-0.785 1.257-1.047 0.494-0.263 1.057-0.43 1.688-0.501 0.63-0.064 1.298-0.009 2.004 0.167z" fill="#84e9a9" data-fill-palette-color="accent"></path><path d="M113.242 241.867l0.86-7.203-0.047-0.927-0.61-0.763-1.078-0.265-2.704-0.323-1.972 0.037-1.033 8.658 1.146 0.137 0.915-7.667 0.852-0.035 2.59 0.309 0.74 0.204 0.026 0.652-0.84 7.048zM109.088 231.334l3.323 0.396c0.729 0.087 1.377 0.272 1.943 0.557 0.565 0.291 1.032 0.646 1.401 1.067 0.368 0.421 0.633 0.895 0.793 1.424 0.167 0.529 0.217 1.073 0.151 1.63v0l-0.783 6.563c-0.067 0.564-0.244 1.084-0.532 1.559-0.279 0.469-0.648 0.868-1.105 1.197-0.457 0.322-0.995 0.558-1.613 0.708-0.617 0.143-1.29 0.171-2.02 0.083v0l-3.322-0.396c-0.722-0.086-1.367-0.271-1.933-0.555-0.565-0.291-1.032-0.646-1.401-1.067-0.368-0.428-0.635-0.903-0.804-1.425-0.16-0.528-0.207-1.075-0.139-1.639v0l0.783-6.564c0.066-0.557 0.24-1.074 0.52-1.55 0.287-0.475 0.659-0.874 1.116-1.196 0.457-0.322 0.995-0.558 1.613-0.707 0.617-0.143 1.287-0.171 2.009-0.085z" fill="#84e9a9" data-fill-palette-color="accent"></path><path d="M128 234.403l-0.008-1.153-6.277 0.04 0.007 1.153 2.557-0.016 0.05 7.836 1.164-0.008-0.05-7.836zM122.571 232.307l3.347-0.021c0.734-0.005 1.4 0.098 1.997 0.309 0.597 0.218 1.105 0.513 1.523 0.884 0.418 0.371 0.74 0.809 0.965 1.314 0.232 0.504 0.35 1.037 0.353 1.598v0l0.042 6.61c0.004 0.568-0.107 1.106-0.332 1.613-0.219 0.5-0.534 0.942-0.948 1.326-0.413 0.377-0.917 0.678-1.512 0.904-0.594 0.219-1.259 0.33-1.993 0.335v0l-3.347 0.021c-0.727 0.005-1.39-0.099-1.987-0.31-0.597-0.218-1.105-0.513-1.523-0.884-0.418-0.378-0.743-0.816-0.975-1.313-0.225-0.504-0.339-1.041-0.342-1.609v0l-0.043-6.61c-0.004-0.561 0.104-1.095 0.323-1.602 0.225-0.507 0.545-0.949 0.958-1.327 0.413-0.377 0.917-0.678 1.511-0.903 0.594-0.219 1.255-0.33 1.983-0.335z" fill="#84e9a9" data-fill-palette-color="accent"></path><path d="M142.416 240.804l-0.151-1.143-4.307 0.569-0.361-2.73 3.606-0.477-0.15-1.133-3.606 0.477-0.365-2.762 4.152-0.549-0.151-1.143-5.265 0.696 1.179 8.912zM136.071 231.59l3.318-0.439c0.728-0.096 1.402-0.077 2.02 0.058 0.62 0.142 1.16 0.371 1.622 0.687 0.461 0.316 0.835 0.711 1.121 1.183 0.293 0.471 0.476 0.985 0.549 1.542v0l0.867 6.553c0.075 0.563 0.032 1.111-0.129 1.642-0.154 0.524-0.413 1.002-0.774 1.433-0.363 0.425-0.825 0.787-1.387 1.086-0.563 0.291-1.208 0.485-1.936 0.581v0l-3.318 0.438c-0.721 0.095-1.391 0.076-2.01-0.059-0.62-0.142-1.16-0.371-1.622-0.687-0.462-0.323-0.839-0.717-1.131-1.181-0.286-0.472-0.466-0.99-0.541-1.554v0l-0.867-6.553c-0.074-0.556-0.034-1.1 0.12-1.63 0.16-0.531 0.422-1.01 0.785-1.435 0.363-0.425 0.825-0.787 1.387-1.085 0.563-0.291 1.204-0.484 1.926-0.58z" fill="#84e9a9" data-fill-palette-color="accent"></path><path d="M149.374 229.193l3.237-0.85c0.71-0.187 1.381-0.252 2.012-0.195 0.633 0.063 1.198 0.223 1.694 0.479 0.497 0.256 0.917 0.601 1.26 1.034 0.35 0.431 0.596 0.918 0.739 1.461v0l1.679 6.393c0.144 0.55 0.17 1.098 0.077 1.645-0.088 0.539-0.284 1.045-0.589 1.519-0.307 0.467-0.721 0.884-1.241 1.25-0.522 0.359-1.138 0.632-1.848 0.819v0l-3.237 0.85c-0.704 0.185-1.371 0.249-2.002 0.192-0.633-0.063-1.198-0.223-1.694-0.479-0.499-0.263-0.922-0.607-1.27-1.031-0.343-0.433-0.587-0.924-0.731-1.473v0l-1.679-6.394c-0.143-0.543-0.171-1.087-0.085-1.632 0.093-0.547 0.293-1.055 0.599-1.522 0.307-0.467 0.721-0.884 1.241-1.25 0.522-0.359 1.134-0.631 1.838-0.816zM154.693 234.716l0.311 0.531 0.681 2.593 1.116-0.293-0.713-2.714-0.625-0.867-1.31-0.118 1.011-0.857 0.074-1.029-0.309-1.176-0.351-0.843-0.925-0.702-1.096 0.126-3.92 1.03 2.284 8.695 1.125-0.296-0.918-3.498 2.734-0.718zM150.056 231.217l2.734-0.718 0.829 0.126 0.231 0.595 0.293 1.116 0 0.612-0.577 0.506-2.734 0.718z" fill="#84e9a9" data-fill-palette-color="accent"></path><path d="M168.091 225.109l-0.431-1.07-5.824 2.341 0.431 1.071 2.372-0.954 2.923 7.271 1.08-0.435-2.923-7.27zM162.272 225.152l3.105-1.248c0.681-0.274 1.339-0.422 1.972-0.446 0.636-0.017 1.216 0.071 1.741 0.264 0.525 0.192 0.985 0.481 1.379 0.868 0.401 0.384 0.706 0.836 0.916 1.357v0l2.465 6.132c0.212 0.527 0.306 1.068 0.283 1.623-0.02 0.546-0.151 1.073-0.395 1.581-0.246 0.502-0.604 0.967-1.074 1.396-0.473 0.422-1.05 0.769-1.732 1.043v0l-3.105 1.248c-0.675 0.271-1.329 0.419-1.961 0.442-0.636 0.017-1.216-0.071-1.742-0.264-0.528-0.199-0.991-0.487-1.389-0.864-0.394-0.387-0.698-0.843-0.909-1.37v0l-2.466-6.133c-0.209-0.521-0.305-1.057-0.288-1.609 0.023-0.555 0.158-1.083 0.404-1.585 0.246-0.502 0.604-0.967 1.075-1.396 0.473-0.422 1.047-0.768 1.721-1.039z" fill="#84e9a9" data-fill-palette-color="accent"></path><path d="M174.566 219.529l2.924-1.626c0.642-0.357 1.275-0.586 1.901-0.688 0.629-0.096 1.215-0.081 1.76 0.044 0.545 0.125 1.038 0.355 1.477 0.689 0.446 0.331 0.805 0.742 1.078 1.232v0l3.212 5.777c0.276 0.497 0.437 1.021 0.483 1.575 0.049 0.544-0.016 1.083-0.194 1.618-0.182 0.529-0.479 1.035-0.892 1.518-0.416 0.477-0.946 0.894-1.587 1.251v0l-2.925 1.627c-0.636 0.354-1.266 0.581-1.892 0.683-0.629 0.096-1.215 0.081-1.76-0.044-0.549-0.131-1.044-0.359-1.486-0.684-0.44-0.334-0.797-0.75-1.074-1.246v0l-3.212-5.777c-0.273-0.49-0.435-1.011-0.487-1.561-0.046-0.553 0.022-1.094 0.203-1.623 0.182-0.529 0.479-1.035 0.892-1.518 0.416-0.477 0.943-0.893 1.579-1.247zM181.907 224.2l1.308 1.924 1.081-0.601-4.688-6.657-0.919-0.262-1.369 0.512-1.017 0.565-1.157 0.893-0.253 0.914 3.162 7.505 1.127-0.626-0.972-2.112-0.394-0.922 3.506-1.95zM177.844 220.144l0.971-0.35c0.331 0.482 0.652 0.938 0.963 1.368 0.313 0.42 0.635 0.872 0.966 1.353v0l-3.342 1.859-1.33-3.054c0.162-0.122 0.303-0.232 0.423-0.331 0.114-0.095 0.255-0.205 0.423-0.33v0z" fill="#84e9a9" data-fill-palette-color="accent"></path><path d="M192.639 218.523l-2.062 1.512 0.681 0.93 5.064-3.711-0.682-0.93-2.062 1.511-3.951-5.39 2.062-1.511-0.682-0.931-5.063 3.711 0.682 0.931 2.062-1.512zM186.063 212.416l2.699-1.978c0.592-0.434 1.192-0.741 1.8-0.92 0.612-0.173 1.196-0.232 1.752-0.176 0.556 0.056 1.074 0.223 1.551 0.5 0.483 0.273 0.891 0.636 1.223 1.088v0l3.907 5.331c0.336 0.458 0.561 0.959 0.676 1.502 0.116 0.533 0.119 1.077 0.009 1.63-0.114 0.548-0.346 1.087-0.695 1.618-0.354 0.525-0.827 1.005-1.419 1.439v0l-2.7 1.979c-0.587 0.43-1.184 0.735-1.791 0.913-0.612 0.173-1.196 0.232-1.752 0.176-0.561-0.062-1.081-0.226-1.56-0.493-0.478-0.277-0.885-0.644-1.221-1.103v0l-3.907-5.331c-0.332-0.453-0.558-0.949-0.678-1.488-0.115-0.543-0.115-1.088-0.001-1.636 0.114-0.548 0.346-1.087 0.696-1.618 0.354-0.525 0.824-1.003 1.411-1.433z" fill="#84e9a9" data-fill-palette-color="accent"></path><path d="M207.332 207.47l-4.986-5.268-0.742-0.557-0.977-0.02-0.893 0.659-1.978 1.872-1.233 1.539 5.994 6.333 0.837-0.793-5.308-5.608 0.519-0.677 1.895-1.793 0.629-0.439 0.519 0.397 4.879 5.156zM196.579 203.925l2.43-2.3c0.533-0.505 1.09-0.884 1.671-1.138 0.585-0.249 1.157-0.38 1.717-0.394 0.559-0.014 1.093 0.086 1.601 0.302 0.514 0.21 0.963 0.519 1.35 0.926v0l4.543 4.801c0.391 0.413 0.677 0.881 0.858 1.406 0.182 0.515 0.253 1.053 0.213 1.616-0.045 0.557-0.207 1.122-0.488 1.692-0.285 0.566-0.694 1.101-1.227 1.605v0l-2.431 2.301c-0.528 0.5-1.083 0.877-1.663 1.13-0.585 0.249-1.157 0.38-1.717 0.394-0.564 0.009-1.1-0.089-1.609-0.294-0.509-0.215-0.958-0.529-1.349-0.942v0l-4.543-4.8c-0.386-0.408-0.672-0.871-0.859-1.391-0.182-0.525-0.25-1.066-0.205-1.623 0.045-0.557 0.207-1.122 0.488-1.693 0.285-0.566 0.692-1.098 1.22-1.598z" fill="#84e9a9" data-fill-palette-color="accent"></path><path d="M205.951 194.185l2.124-2.586c0.466-0.568 0.971-1.013 1.515-1.338 0.549-0.32 1.101-0.522 1.654-0.605 0.553-0.084 1.095-0.051 1.627 0.099 0.536 0.144 1.021 0.395 1.454 0.75v0l5.108 4.195c0.439 0.361 0.781 0.79 1.028 1.288 0.245 0.488 0.383 1.013 0.413 1.576 0.025 0.559-0.065 1.139-0.272 1.74-0.212 0.597-0.551 1.179-1.018 1.747v0l-2.124 2.586c-0.462 0.562-0.965 1.005-1.509 1.329-0.549 0.32-1.101 0.522-1.653 0.606-0.558 0.079-1.103 0.049-1.634-0.091-0.532-0.15-1.017-0.405-1.456-0.765v0l-5.108-4.195c-0.434-0.356-0.776-0.78-1.025-1.273-0.246-0.498-0.381-1.026-0.407-1.585-0.025-0.559 0.065-1.139 0.272-1.74 0.212-0.597 0.549-1.176 1.011-1.738zM208.7 193.834l-0.809-0.194-0.512 0.346-0.904 1.1-0.46 0.806 0.096 0.98 6.289 5.164 0.739-0.899-5.984-4.914c0.045-0.088 0.092-0.167 0.14-0.235 0.043-0.063 0.085-0.141 0.124-0.234v0l0.785-0.956c0.074-0.047 0.138-0.097 0.192-0.152 0.054-0.054 0.113-0.105 0.177-0.15v0l3.566 2.929 0.739-0.9-3.566-2.928 0.225-0.421 0.791-0.964c0.079-0.052 0.149-0.111 0.212-0.176 0.058-0.06 0.126-0.121 0.203-0.182v0l5.984 4.914 0.732-0.892-6.289-5.164-0.973 0.088-0.701 0.608-0.904 1.1-0.239 0.57z" fill="#84e9a9" data-fill-palette-color="accent"></path><path d="M225.175 184.364l-0.976-0.615-2.316 3.675-2.33-1.469 1.939-3.077-0.967-0.609-1.939 3.077-2.357-1.485 2.234-3.544-0.976-0.615-2.832 4.493 7.605 4.794zM214.033 183.349l1.785-2.831c0.392-0.621 0.837-1.127 1.336-1.517 0.505-0.386 1.027-0.655 1.566-0.807 0.538-0.152 1.08-0.187 1.626-0.105 0.55 0.076 1.062 0.264 1.537 0.564v0l5.592 3.524c0.481 0.303 0.874 0.686 1.18 1.149 0.304 0.454 0.506 0.958 0.606 1.513 0.095 0.551 0.077 1.138-0.052 1.76-0.136 0.619-0.4 1.239-0.792 1.86v0l-1.784 2.831c-0.388 0.615-0.832 1.118-1.331 1.507-0.505 0.386-1.027 0.655-1.565 0.808-0.544 0.148-1.088 0.186-1.632 0.113-0.546-0.082-1.059-0.275-1.541-0.577v0l-5.591-3.525c-0.475-0.299-0.867-0.677-1.177-1.134-0.306-0.463-0.506-0.97-0.601-1.522-0.095-0.551-0.077-1.138 0.053-1.76 0.136-0.619 0.398-1.236 0.785-1.851z" fill="#84e9a9" data-fill-palette-color="accent"></path><path d="M232.005 170.941l-6.572-3.072-0.894-0.246-0.917 0.341-0.589 0.94-1.153 2.467-0.582 1.885 7.899 3.692 0.488-1.045-6.995-3.27 0.234-0.82 1.105-2.363 0.425-0.639 0.627 0.179 6.431 3.006zM220.7 171.588l1.418-3.031c0.311-0.665 0.69-1.222 1.136-1.672 0.453-0.446 0.937-0.778 1.453-0.996 0.515-0.218 1.049-0.321 1.6-0.307 0.555 0.007 1.087 0.129 1.595 0.367v0l5.988 2.799c0.515 0.241 0.953 0.572 1.314 0.993 0.358 0.412 0.622 0.887 0.791 1.425 0.163 0.535 0.219 1.119 0.167 1.753-0.058 0.631-0.242 1.279-0.553 1.945v0l-1.417 3.031c-0.308 0.659-0.686 1.213-1.132 1.662-0.453 0.446-0.937 0.778-1.453 0.996-0.521 0.215-1.056 0.321-1.605 0.317-0.552-0.013-1.085-0.14-1.6-0.381v0l-5.988-2.799c-0.508-0.238-0.945-0.564-1.309-0.979-0.361-0.421-0.624-0.899-0.786-1.435-0.163-0.535-0.219-1.119-0.167-1.753 0.058-0.631 0.241-1.276 0.548-1.935z" fill="#84e9a9" data-fill-palette-color="accent"></path><path d="M229.537 154.589l-1.098-0.354-1.927 5.974 1.098 0.354 0.785-2.433 7.457 2.406 0.358-1.108-7.458-2.406zM225.847 159.088l1.027-3.185c0.225-0.699 0.532-1.299 0.919-1.8 0.394-0.499 0.833-0.889 1.317-1.169 0.484-0.281 1-0.449 1.55-0.505 0.552-0.062 1.094-0.007 1.628 0.165v0l6.291 2.029c0.541 0.174 1.017 0.448 1.428 0.821 0.407 0.364 0.728 0.803 0.962 1.315 0.228 0.511 0.357 1.083 0.385 1.719 0.021 0.633-0.081 1.299-0.306 1.998v0l-1.028 3.185c-0.223 0.692-0.529 1.289-0.916 1.79-0.394 0.499-0.833 0.889-1.316 1.17-0.49 0.279-1.008 0.45-1.553 0.514-0.549 0.056-1.094-0.004-1.635-0.178v0l-6.291-2.029c-0.534-0.172-1.008-0.442-1.421-0.808-0.411-0.373-0.731-0.815-0.959-1.325-0.228-0.511-0.357-1.083-0.385-1.719-0.021-0.633 0.079-1.296 0.303-1.988z" fill="#84e9a9" data-fill-palette-color="accent"></path></g></svg></g></svg></g></svg></g></svg></g></svg></g><defs></defs></svg><rect width="247.2" height="247.2" fill="none" stroke="none" visibility="hidden"></rect></g></svg></g></svg>